<?xml version="1.0" standalone="no"?>
<!DOCTYPE svg PUBLIC "-//W3C//DTD SVG 20010904//EN"
 "http://www.w3.org/TR/2001/REC-SVG-20010904/DTD/svg10.dtd">
<svg version="1.0" xmlns="http://www.w3.org/2000/svg"
 width="2083.000000pt" height="2083.000000pt" viewBox="0 0 2083.000000 2083.000000"
 preserveAspectRatio="xMidYMid meet">
<metadata>
Created by potrace 1.15, written by Peter Selinger 2001-2017
</metadata>
<g transform="translate(0.000000,2083.000000) scale(0.100000,-0.100000)"
fill="#000000" stroke="none">
<path d="M10000 20800 l0 -30 -67 0 c-93 0 -430 -27 -643 -51 -2144 -242
-4129 -1129 -5760 -2574 -187 -166 -679 -658 -845 -845 -1478 -1669 -2371
-3703 -2590 -5905 -20 -202 -35 -415 -35 -497 l0 -68 -30 0 -30 0 0 -415 0
-415 28 0 29 0 7 -151 c14 -314 63 -756 126 -1131 471 -2801 2081 -5297 4448
-6896 1456 -983 3103 -1571 4866 -1737 87 -8 219 -18 292 -21 l134 -7 0 -29 0
-28 485 0 485 0 0 30 c0 30 0 30 59 30 152 0 641 49 954 96 1080 160 2078 473
3062 959 1048 517 1935 1153 2761 1979 831 831 1479 1738 1995 2791 474 969
785 1967 943 3032 47 313 96 802 96 954 0 59 0 59 30 59 l30 0 0 485 0 485
-28 0 -29 0 -7 134 c-8 174 -30 401 -62 656 -235 1884 -996 3680 -2190 5174
-959 1200 -2162 2169 -3526 2844 -1027 507 -2093 832 -3238 986 -233 32 -573
63 -769 72 l-151 7 0 29 0 28 -415 0 -415 0 0 -30z m988 -3826 c1753 -140
3359 -974 4496 -2333 690 -826 1174 -1831 1384 -2876 149 -741 173 -1560 66
-2320 -156 -1112 -608 -2181 -1298 -3070 -332 -428 -753 -849 -1181 -1181
-889 -690 -1959 -1142 -3070 -1298 -645 -90 -1375 -87 -2005 10 -687 106
-1306 303 -1930 615 -1536 769 -2716 2120 -3269 3742 -401 1177 -459 2525
-161 3742 241 987 683 1859 1346 2656 164 198 605 639 803 803 420 349 821
612 1291 847 819 409 1690 634 2617 679 229 11 677 3 911 -16z"/>
<path d="M10120 15981 l-45 -6 -3 -50 c-4 -60 -12 -71 -60 -78 -26 -5 -40 -13
-47 -29 -6 -13 -23 -28 -40 -33 -16 -6 -43 -22 -58 -37 -16 -15 -62 -44 -103
-65 -46 -24 -74 -44 -74 -54 0 -9 -7 -22 -15 -29 -8 -7 -15 -22 -15 -35 0 -25
-29 -55 -53 -55 -9 0 -17 -4 -17 -9 0 -5 -9 -11 -20 -14 -16 -4 -20 -14 -20
-44 0 -44 -14 -63 -47 -63 -14 0 -23 -6 -23 -15 0 -8 -7 -15 -15 -15 -8 0 -15
-6 -15 -14 0 -16 -21 -26 -56 -26 -13 0 -24 -3 -24 -7 0 -15 -67 -53 -93 -53
-23 0 -27 -4 -27 -27 0 -17 -11 -38 -25 -52 -14 -13 -25 -27 -25 -32 0 -5 -8
-9 -19 -9 -12 0 -20 -9 -24 -27 -8 -37 -43 -92 -64 -100 -9 -4 -25 -15 -36
-26 -30 -30 -120 -67 -179 -73 -29 -4 -75 -12 -103 -19 -27 -7 -99 -16 -158
-20 -91 -5 -114 -10 -145 -30 -20 -13 -57 -29 -82 -35 -25 -6 -66 -25 -91 -41
-39 -25 -60 -30 -137 -35 -82 -6 -92 -5 -92 10 0 15 -3 15 -29 2 -15 -8 -36
-26 -45 -40 -9 -15 -25 -26 -35 -26 -10 0 -23 -11 -29 -25 -7 -16 -23 -28 -42
-31 -16 -4 -36 -17 -45 -30 -10 -16 -25 -24 -44 -24 -19 0 -47 -14 -81 -42
-29 -24 -73 -57 -97 -75 -25 -17 -50 -42 -57 -54 -22 -43 -62 -63 -138 -67
l-71 -4 5 76 5 76 -29 0 c-27 0 -28 1 -28 54 0 35 5 58 15 66 8 7 15 20 15 30
0 9 11 29 25 44 15 16 25 39 25 56 0 16 4 31 9 35 5 3 12 19 16 36 4 16 15 35
26 42 10 6 19 18 19 25 0 7 16 22 35 33 19 12 35 29 35 39 0 18 62 80 80 80 6
0 10 8 10 19 0 21 34 59 76 83 16 10 48 34 72 53 24 19 56 38 70 41 15 4 39
15 54 25 14 11 40 19 57 19 31 0 31 1 31 50 0 28 4 50 8 50 4 0 27 18 51 40
32 30 51 40 75 40 22 0 40 8 56 25 17 18 34 25 61 25 34 0 37 2 41 34 4 40 16
42 -153 -34 -265 -121 -339 -168 -339 -218 0 -39 -60 -92 -104 -92 -22 0 -64
-15 -111 -40 -50 -26 -89 -40 -114 -40 -50 0 -151 -64 -151 -96 0 -23 -35 -44
-74 -44 -29 0 -200 -128 -215 -161 -6 -14 -47 -57 -91 -95 -44 -38 -80 -77
-80 -86 0 -10 -9 -22 -20 -28 -11 -6 -20 -20 -20 -31 0 -10 -10 -24 -22 -30
-13 -5 -31 -28 -40 -50 -14 -33 -21 -39 -47 -39 -17 0 -31 -1 -31 -3 0 -1 -9
-27 -21 -57 -12 -30 -20 -75 -19 -99 2 -76 -9 -121 -31 -121 -17 0 -19 -8 -19
-59 0 -56 -2 -60 -44 -99 -23 -22 -52 -43 -64 -46 -14 -5 -22 -17 -24 -39 -3
-30 -13 -40 -84 -83 -18 -11 -18 -12 4 -32 18 -16 22 -30 22 -75 0 -31 -4 -58
-9 -61 -4 -3 -11 -36 -14 -73 -4 -37 -11 -69 -17 -71 -5 -2 -10 -11 -10 -20 0
-9 -12 -29 -27 -44 -24 -25 -33 -28 -95 -28 -68 0 -69 0 -74 29 -5 24 -12 30
-45 35 l-39 6 0 53 c0 28 -3 62 -6 75 -8 27 -34 29 -34 2 0 -13 -9 -22 -25
-26 -17 -4 -25 -13 -25 -29 0 -12 -9 -34 -21 -49 -18 -23 -27 -26 -87 -26
l-67 0 -87 -139 c-412 -656 -682 -1382 -797 -2141 -71 -467 -79 -945 -25
-1405 34 -293 96 -609 125 -641 11 -12 19 -35 19 -57 0 -34 2 -37 30 -37 39 0
116 -69 141 -126 10 -22 27 -49 39 -59 11 -10 20 -28 20 -41 0 -39 11 -54 39
-54 18 0 39 -12 62 -36 18 -20 44 -40 56 -44 49 -20 197 -126 231 -167 20 -24
54 -71 74 -105 35 -57 61 -80 133 -117 64 -34 115 -197 115 -368 0 -89 -17
-137 -50 -148 -9 -3 -37 -18 -62 -34 -35 -22 -48 -38 -53 -63 -9 -41 -22 -58
-45 -58 -26 0 -30 -22 -15 -74 8 -25 19 -83 25 -129 13 -96 30 -124 204 -357
171 -228 303 -378 535 -610 455 -455 893 -770 1471 -1059 938 -468 1992 -664
2994 -556 1020 110 1985 494 2795 1110 399 303 735 633 1035 1015 l47 60 -50
0 -51 0 0 63 c0 90 15 107 91 107 l59 0 0 -52 0 -52 47 64 c137 189 303 459
431 700 357 675 591 1541 619 2292 l6 167 -44 73 c-24 40 -53 80 -64 89 -11
10 -31 48 -44 85 -14 38 -44 103 -67 145 -24 41 -64 121 -88 176 -24 55 -56
118 -70 139 -14 21 -26 43 -26 49 0 6 -21 9 -52 7 -38 -3 -68 3 -103 18 -72
31 -85 46 -85 97 0 35 -3 43 -19 43 -10 0 -31 10 -47 23 -32 25 -79 44 -139
57 -38 8 -44 6 -112 -41 -87 -60 -118 -74 -203 -89 -36 -6 -71 -17 -78 -23 -7
-6 -54 -13 -105 -16 l-92 -6 40 -16 c22 -9 69 -20 104 -24 53 -6 70 -13 101
-41 21 -19 43 -34 49 -34 7 0 11 -39 11 -124 0 -96 -5 -139 -20 -188 -11 -34
-20 -86 -20 -114 0 -44 -4 -54 -34 -83 -19 -18 -41 -52 -50 -75 -10 -25 -28
-49 -45 -59 -19 -11 -34 -32 -43 -60 -11 -36 -24 -49 -95 -97 -71 -47 -84 -61
-94 -95 -9 -31 -41 -69 -146 -172 -73 -73 -141 -133 -149 -133 -8 0 -39 -22
-67 -49 -29 -26 -70 -54 -91 -61 -22 -7 -58 -30 -81 -51 -47 -43 -81 -59 -131
-59 -26 0 -34 -4 -34 -18 0 -24 31 -52 57 -52 49 0 174 54 235 102 20 15 60
38 90 50 29 12 73 36 98 55 52 40 70 45 135 41 47 -3 50 -5 59 -37 6 -22 6
-75 -1 -155 -9 -96 -21 -150 -57 -261 -25 -77 -60 -189 -78 -250 -46 -155
-134 -286 -301 -450 -121 -117 -228 -258 -287 -375 -12 -25 -31 -54 -41 -65
-54 -59 -89 -93 -122 -118 -29 -22 -40 -40 -57 -98 -17 -56 -19 -73 -9 -85 8
-10 10 -54 7 -155 -5 -128 -4 -142 14 -164 11 -14 28 -25 40 -25 19 0 20 -5
16 -227 -3 -226 -3 -229 -31 -289 -49 -105 -149 -183 -316 -246 -67 -25 -94
-42 -129 -79 -24 -26 -64 -62 -89 -80 -44 -33 -45 -35 -37 -74 4 -22 8 -97 8
-167 1 -125 0 -128 -25 -154 -18 -18 -58 -35 -123 -54 -137 -40 -146 -47 -146
-119 0 -86 -44 -168 -113 -213 -28 -18 -79 -57 -112 -87 -95 -86 -213 -170
-296 -212 -94 -47 -191 -73 -369 -98 -255 -37 -329 -50 -349 -60 -11 -7 -85
-11 -175 -11 l-156 0 -6 25 c-3 13 -12 29 -20 36 -18 15 -20 139 -2 139 6 0 0
12 -14 28 -14 15 -44 52 -67 84 -31 41 -56 63 -97 82 -65 31 -89 66 -99 144
-4 32 -18 80 -31 108 -15 32 -24 69 -24 99 0 50 -4 56 -115 165 -22 22 -44 56
-50 77 -8 29 -21 43 -64 68 -29 17 -58 40 -64 51 -6 10 -13 78 -15 150 -4 125
-3 133 18 154 12 12 32 43 44 69 12 26 36 65 54 86 18 22 32 44 32 51 0 6 11
21 25 34 21 20 24 29 18 64 -3 23 -12 51 -20 63 -10 14 -13 47 -12 102 1 44
-3 86 -8 93 -6 7 -33 42 -61 77 -29 36 -55 80 -58 98 -8 45 -75 118 -127 138
-25 10 -50 29 -62 48 -11 17 -33 35 -50 40 -47 15 -115 68 -115 89 0 11 -13
31 -30 45 -27 22 -30 31 -30 79 0 41 5 59 20 74 14 14 20 33 20 65 0 25 5 45
10 45 6 0 10 15 10 33 0 18 6 41 14 52 13 20 21 84 16 135 l-2 25 -7 -25 c-6
-23 -12 -25 -79 -28 l-72 -3 0 41 0 41 -37 -8 c-21 -4 -81 -8 -134 -8 -116 0
-139 13 -139 77 0 42 -16 63 -73 94 -47 25 -158 30 -209 9 -24 -10 -81 -22
-128 -26 -116 -11 -225 -25 -350 -44 -114 -18 -206 -15 -300 10 -74 20 -109
19 -175 -6 -47 -17 -73 -20 -160 -17 -99 3 -105 4 -152 37 -26 19 -86 61 -133
94 -47 32 -102 79 -124 103 -21 25 -52 52 -69 61 -57 29 -97 67 -97 91 0 15
-7 26 -19 29 -14 3 -20 18 -25 54 -4 29 -15 58 -26 69 -11 11 -20 27 -20 35 0
30 -41 96 -90 146 -28 28 -50 57 -50 64 0 7 -20 29 -45 49 -41 34 -45 41 -45
81 0 24 -10 65 -21 92 -12 27 -24 79 -26 118 -5 70 -5 70 30 102 20 18 38 46
42 65 4 18 16 58 27 88 19 51 20 69 14 256 -8 230 -19 193 106 336 37 43 93
111 123 153 30 41 67 82 81 92 41 28 77 64 71 70 -4 3 -45 5 -92 4 -78 -1 -85
0 -85 18 0 16 -8 20 -42 23 -39 3 -43 6 -46 31 -2 19 -9 27 -23 27 -16 0 -19
7 -19 55 l0 55 55 0 c42 0 55 -3 55 -15 0 -11 11 -15 41 -15 32 0 42 -4 46
-20 4 -15 14 -20 39 -20 26 0 34 -4 35 -17 0 -15 3 -14 16 5 8 12 24 22 34 22
11 0 19 7 19 15 0 12 13 15 55 15 l55 0 0 -58 0 -59 86 43 c136 67 164 104
164 218 0 58 4 69 40 123 41 62 91 97 175 123 66 20 117 58 167 123 l47 62
-23 30 c-22 28 -29 30 -104 35 -54 3 -86 10 -96 20 -12 11 -16 47 -18 150 l-3
135 49 72 c57 86 74 150 51 196 -8 17 -15 51 -15 76 l0 46 56 24 c51 22 63 24
169 17 145 -8 236 -21 353 -50 l93 -23 19 24 c10 14 22 44 26 69 6 42 4 47
-35 89 -22 24 -41 52 -41 62 0 20 -46 63 -67 63 -7 0 -13 6 -13 14 0 19 -16
29 -60 36 -34 5 -35 7 -38 52 -2 26 3 66 11 90 12 35 21 44 48 51 35 9 137 4
177 -8 21 -7 22 -4 22 37 l0 45 -52 -5 c-29 -3 -62 -11 -73 -18 -23 -16 -112
-18 -149 -4 -24 9 -26 15 -26 65 0 51 2 56 28 67 42 18 62 39 62 66 0 19 -4
23 -17 17 -10 -4 -31 -12 -48 -18 -16 -6 -45 -17 -64 -25 -26 -11 -55 -13
-113 -9 -102 8 -112 18 -106 99 4 52 8 64 31 80 24 18 27 26 27 79 0 58 1 60
30 70 24 9 30 17 30 40 0 27 3 29 39 29 52 0 71 8 71 31 0 11 7 19 18 19 9 0
30 7 46 15 15 8 41 15 57 15 28 0 29 2 29 45 0 38 -3 45 -20 45 -18 0 -20 7
-20 55 0 56 21 105 44 105 6 0 20 17 31 38 l20 37 90 3 c50 2 122 4 160 5 l70
2 3 -57 c3 -50 6 -57 27 -62 23 -6 25 -11 25 -69 0 -54 -4 -67 -28 -97 l-28
-33 19 -54 c13 -33 34 -66 56 -85 51 -45 71 -78 71 -120 0 -32 3 -38 21 -38
49 0 59 -16 59 -95 0 -70 10 -95 24 -60 3 9 18 15 39 15 29 0 35 5 46 36 8 21
29 47 54 65 23 17 45 39 49 50 6 16 17 19 68 19 42 0 60 -4 60 -13 0 -15 67
-11 88 5 16 14 15 63 -2 77 -23 20 -48 241 -27 241 6 0 11 9 11 20 0 15 -7 20
-26 20 -14 0 -48 10 -75 22 -47 22 -49 25 -49 62 0 22 -7 47 -15 56 -12 13
-17 55 -22 174 -6 155 -6 157 15 163 13 3 22 13 22 24 0 15 7 19 31 19 22 0
32 5 36 19 3 12 15 21 32 23 18 2 27 10 29 26 4 24 7 26 54 36 21 5 27 13 30
39 3 30 5 32 51 38 39 4 56 13 85 42 21 20 53 51 72 69 44 42 70 75 70 88 0 6
5 10 10 10 6 0 10 9 10 19 0 11 15 34 33 50 l32 31 -52 0 -53 0 0 54 c0 50 2
56 28 68 18 9 28 22 30 40 3 22 10 29 38 34 24 4 34 12 34 25 0 11 6 19 13 19
16 0 47 36 47 55 0 17 18 51 37 72 6 7 28 13 47 13 28 0 36 4 36 18 0 33 33
52 88 52 29 0 52 5 52 10 0 6 18 10 39 10 22 0 43 5 46 10 3 6 30 10 59 10 39
0 57 -5 70 -19 9 -10 36 -22 59 -25 47 -8 77 -30 77 -58 0 -15 8 -18 50 -18
38 0 50 -4 50 -15 0 -11 11 -15 41 -15 41 0 216 -46 285 -75 l34 -14 0 55 0
54 65 0 65 0 0 55 0 55 73 0 c80 0 107 -15 107 -59 0 -12 4 -19 10 -16 6 3 10
17 10 31 0 22 4 24 49 24 65 0 111 10 111 24 0 11 -101 47 -131 46 -9 0 -19
-7 -23 -15 -4 -11 -22 -15 -75 -15 -59 0 -73 3 -91 22 -11 12 -20 25 -20 30 0
4 -23 8 -50 8 -42 0 -55 5 -80 29 -17 15 -30 38 -30 49 0 12 -13 31 -30 44
-16 12 -30 29 -30 38 0 18 -35 54 -62 63 -10 4 -18 13 -18 20 0 8 -13 33 -30
55 -27 38 -30 48 -30 124 1 46 3 114 7 152 l6 68 68 -4 c96 -5 122 -26 131
-104 13 -109 20 -144 28 -144 11 0 60 -77 60 -95 0 -8 7 -15 15 -15 9 0 34
-17 58 -38 68 -62 147 -112 177 -112 16 0 35 -6 42 -14 8 -7 29 -16 48 -19 19
-3 47 -9 63 -12 17 -5 33 -3 42 5 14 11 11 17 -22 44 -63 51 -183 169 -183
180 0 6 -15 18 -33 26 -30 14 -32 19 -35 73 l-3 57 61 0 c47 0 64 -4 80 -20
l20 -20 0 60 0 59 -82 25 c-214 65 -737 176 -830 176 -27 0 -28 -2 -28 -50 l0
-50 -50 0 c-44 0 -50 -2 -50 -21 0 -20 -2 -21 -132 -14 -73 4 -141 12 -150 17
-14 7 -18 22 -18 71 0 97 -2 97 -297 95 -131 0 -258 -4 -283 -7z m404 -101
c72 -12 106 -39 106 -87 0 -33 0 -33 50 -33 l50 0 0 -55 c0 -48 -2 -55 -20
-55 -11 0 -20 -7 -20 -15 0 -8 -4 -15 -10 -15 -6 0 -10 -26 -10 -59 0 -33 -4
-63 -10 -66 -5 -3 -41 -9 -79 -12 -65 -5 -71 -8 -82 -34 -10 -27 -16 -29 -63
-29 -45 0 -56 4 -92 38 -32 29 -43 48 -49 82 -5 28 -17 54 -33 68 -23 22 -24
28 -19 100 7 102 12 112 53 112 22 0 34 5 34 14 0 8 11 17 25 20 14 4 25 13
25 21 0 18 55 20 144 5z m-1734 -1160 l0 -30 68 -1 c37 0 95 0 130 1 38 1 62
-3 62 -9 0 -6 12 -11 26 -11 l27 0 -7 -100 c-4 -56 -10 -108 -13 -116 -8 -21
-103 -80 -150 -93 -21 -6 -57 -11 -79 -11 -26 0 -47 -6 -55 -16 -10 -12 -26
-14 -73 -10 -114 9 -136 16 -136 41 0 16 -8 24 -32 31 -29 9 -34 15 -40 54
-12 83 -9 150 7 156 8 4 15 16 15 28 0 15 9 25 30 33 17 6 30 18 30 27 0 9 7
16 15 16 8 0 23 9 32 20 14 16 30 20 80 20 l63 0 0 -30z m840 -715 c0 -48 -2
-55 -20 -55 -14 0 -20 -7 -20 -23 0 -44 -20 -58 -80 -55 l-55 3 -3 57 c-4 69
9 98 43 98 16 0 25 6 25 15 0 12 13 15 55 15 l55 0 0 -55z m5050 -4098 c0 -29
-5 -58 -12 -65 -7 -7 -43 -12 -90 -12 l-78 0 0 53 c0 66 14 75 113 76 l67 1 0
-53z m-337 -2337 c30 -18 35 -27 45 -84 7 -35 12 -97 12 -137 0 -81 -16 -119
-51 -119 -16 0 -19 -7 -19 -48 0 -40 -10 -66 -67 -167 -37 -66 -81 -154 -98
-195 -32 -75 -119 -238 -158 -295 -72 -107 -142 -145 -268 -145 -107 0 -131
15 -149 91 -7 28 -19 53 -26 56 -19 7 -18 84 1 146 8 28 38 77 73 120 l58 72
-4 102 -4 101 43 47 c32 35 73 62 148 99 78 38 109 59 123 83 11 17 35 43 54
58 18 14 34 32 34 38 0 7 17 30 39 51 28 27 41 49 45 79 4 23 12 47 18 54 17
21 111 16 151 -7z m365 -562 l-3 -73 -62 -3 -63 -3 0 70 c0 78 1 79 78 80 l53
1 -3 -72z"/>
<path d="M10837 14245 c-31 -12 -76 -62 -77 -83 0 -7 -7 -15 -15 -18 -10 -4
-15 -20 -15 -49 0 -60 20 -75 103 -75 l67 0 -6 33 c-3 17 -8 39 -11 47 -3 8
-9 47 -12 86 l-6 71 -28 -12z"/>
<path d="M10918 13926 c-3 -47 -5 -51 -29 -54 -27 -3 -39 -23 -39 -66 0 -11
-7 -28 -17 -38 -15 -17 -14 -18 25 -18 l42 0 0 -55 c0 -30 -9 -78 -21 -110
l-20 -55 -57 0 c-46 0 -60 -4 -70 -20 -9 -14 -23 -20 -51 -20 -40 0 -61 -13
-41 -25 5 -3 10 -24 10 -46 0 -21 2 -39 5 -39 3 0 23 9 45 20 28 14 59 20 110
20 65 0 70 1 70 22 0 12 10 32 22 45 17 18 23 41 29 106 22 234 30 302 37 309
5 5 7 21 4 37 -3 21 -11 30 -28 34 -21 4 -23 1 -26 -47z"/>
<path d="M11967 12535 c-9 -20 -24 -38 -32 -41 -10 -4 -15 -20 -15 -49 0 -34
-4 -44 -20 -48 -14 -4 -20 -14 -20 -34 0 -16 -7 -51 -16 -76 -18 -53 -12 -67
37 -93 46 -23 112 -8 188 44 114 78 153 92 261 92 64 -1 103 -5 120 -15 67
-38 330 6 330 55 0 18 -69 48 -143 64 -44 10 -89 27 -105 40 -15 12 -46 30
-68 40 l-42 18 -70 -42 c-100 -59 -221 -69 -237 -20 -5 16 -15 20 -46 20 -38
0 -39 1 -39 34 0 26 -5 35 -22 40 -38 10 -44 7 -61 -29z"/>
<path d="M10558 12261 c15 -16 44 -49 65 -74 39 -48 80 -67 143 -67 25 0 33
-5 38 -24 5 -19 20 -30 68 -47 33 -13 74 -34 89 -47 27 -22 29 -29 29 -98 l0
-74 -45 0 c-44 0 -45 0 -45 -34 0 -46 -43 -139 -74 -159 -14 -9 -37 -17 -51
-17 -16 0 -25 -6 -25 -15 0 -8 -6 -33 -12 -55 -13 -39 -14 -40 -58 -40 -54 0
-165 32 -240 70 l-55 27 -3 67 -3 66 118 1 c160 2 178 6 178 44 0 25 -6 33
-40 49 -22 10 -62 36 -88 57 -47 37 -69 47 -153 68 -54 14 -133 72 -161 118
l-23 38 0 -45 c1 -25 7 -54 15 -64 21 -27 19 -133 -2 -206 -21 -69 -31 -74
-138 -68 l-59 3 -24 75 c-25 78 -27 190 -5 197 7 3 9 25 6 63 -3 32 -1 72 5
89 13 38 7 38 -40 6 -31 -21 -48 -25 -113 -25 -50 0 -87 5 -107 16 -56 29
-108 -11 -108 -85 0 -32 -17 -50 -79 -81 -25 -12 -70 -39 -100 -59 l-55 -36
37 -3 37 -3 0 -59 c0 -66 -5 -70 -77 -70 -41 0 -52 -6 -108 -55 -35 -30 -82
-63 -106 -74 -24 -10 -53 -29 -64 -41 -33 -37 -80 -51 -169 -50 -111 2 -118 1
-112 -9 9 -14 68 -22 82 -10 7 6 41 10 76 9 63 -1 176 25 308 70 56 19 97 23
303 30 132 5 328 14 436 21 175 11 200 10 231 -4 19 -9 46 -17 60 -19 23 -3
25 -8 28 -60 2 -33 -2 -67 -9 -80 -8 -14 -12 -50 -10 -90 2 -53 -1 -71 -15
-85 -16 -16 -16 -18 1 -28 10 -5 31 -21 47 -34 24 -19 46 -24 131 -31 118 -10
158 -23 276 -87 60 -33 116 -54 196 -73 147 -35 155 -32 155 54 0 59 3 67 31
96 58 58 82 65 214 65 107 0 125 -3 158 -23 29 -17 54 -22 103 -22 36 0 75 -6
87 -12 48 -27 387 -37 424 -12 12 7 39 14 59 14 27 0 37 5 41 20 5 18 14 20
104 19 98 0 152 13 179 45 5 7 13 42 16 77 4 35 10 69 15 74 12 16 14 124 2
136 -7 7 -21 -6 -43 -42 -21 -32 -46 -57 -67 -65 -38 -16 -130 -18 -168 -4
-26 10 -27 13 -23 75 l3 64 -38 9 c-35 9 -39 8 -58 -19 -20 -28 -24 -29 -100
-29 -52 0 -90 5 -109 15 -27 14 -30 14 -30 0 0 -12 -12 -15 -54 -15 -30 0 -58
5 -61 10 -3 6 -33 10 -66 10 l-59 0 0 34 c0 19 -4 38 -10 41 -5 3 -10 19 -10
36 0 19 -5 29 -15 29 -9 0 -15 -9 -15 -25 0 -19 -5 -25 -22 -25 -40 0 -87 -23
-90 -44 -2 -14 -12 -22 -28 -24 -35 -5 -50 -20 -50 -51 l0 -26 187 0 188 0 0
-60 0 -59 -60 -13 c-67 -15 -281 -8 -302 9 -7 6 -13 30 -13 54 l0 44 -60 0
c-57 0 -60 1 -60 25 0 21 -5 25 -28 25 -35 0 -60 25 -73 74 -10 34 -12 36 -54
36 l-45 0 0 58 c0 60 -11 82 -42 82 -10 0 -18 7 -18 17 0 9 -10 27 -22 41 -18
18 -24 39 -28 95 l-5 72 -60 18 c-77 24 -153 57 -166 73 -6 7 -49 28 -95 45
-76 29 -87 36 -105 71 -14 28 -26 38 -43 38 l-24 0 26 -29z m-760 -323 c7 -7
12 -38 12 -70 l0 -59 -62 3 c-53 3 -66 0 -87 -19 -20 -19 -35 -23 -87 -23
l-64 0 0 86 0 87 80 -5 c45 -3 83 -1 86 4 8 13 108 10 122 -4z"/>
<path d="M11568 11993 c-24 -4 -28 -9 -28 -38 0 -22 -6 -37 -17 -43 -27 -16 3
-49 67 -75 l55 -23 -4 86 c-1 47 -4 86 -5 86 -7 6 -46 10 -68 7z"/>
<path d="M13820 11365 c0 -16 94 -125 108 -125 10 0 23 -9 30 -20 6 -11 30
-29 52 -40 22 -11 40 -25 40 -30 0 -6 22 -10 49 -10 l48 0 20 -52 20 -53 44 3
c48 4 69 18 98 67 l19 33 -88 4 c-123 6 -216 51 -317 154 -52 54 -79 74 -97
74 -14 0 -26 -2 -26 -5z"/>
<path d="M12677 10849 c10 -17 39 -47 65 -67 71 -54 138 -136 138 -169 0 -34
14 -51 107 -132 58 -50 76 -73 93 -117 11 -30 20 -75 20 -99 0 -38 4 -47 33
-68 17 -13 53 -32 79 -41 39 -14 52 -26 77 -69 16 -29 35 -72 41 -97 15 -57
34 -78 77 -86 18 -3 60 -24 93 -45 64 -41 70 -38 51 25 -5 17 -14 49 -20 72
-9 33 -22 48 -75 86 -35 26 -79 68 -97 95 -38 57 -48 63 -114 81 -63 16 -90
42 -104 99 -8 31 -18 47 -31 50 -17 4 -20 14 -20 57 0 78 -37 149 -92 177 -56
28 -76 46 -98 90 -12 22 -46 54 -92 86 -40 28 -84 63 -97 77 -36 38 -57 35
-34 -5z"/>
</g>
</svg>
